<svg width="20" height="20" viewBox="0 0 20 20" fill="none" xmlns="http://www.w3.org/2000/svg">
<path fill-rule="evenodd" clip-rule="evenodd" d="M11.3339 0.588071C12.118 1.37217 12.118 2.6435 11.3339 3.4276C10.5498 4.21169 9.27843 4.21169 8.49433 3.4276C7.71024 2.6435 7.71024 1.37217 8.49433 0.588071C9.27843 -0.196024 10.5498 -0.196024 11.3339 0.588071ZM7.38079 7.38067C8.16488 6.59657 8.16488 5.32524 7.38079 4.54114C6.59669 3.75705 5.32535 3.75705 4.54126 4.54114C3.75717 5.32524 3.75717 6.59657 4.54126 7.38067C5.32535 8.16492 6.59669 8.16492 7.38079 7.38067ZM0.588189 8.49421C1.37228 7.71012 2.64362 7.71012 3.42772 8.49421C4.21181 9.27846 4.21181 10.5496 3.42772 11.3339C2.64362 12.118 1.37228 12.118 0.588189 11.3339C-0.196063 10.5496 -0.196063 9.27846 0.588189 8.49421ZM7.38079 12.4474C6.59669 11.6632 5.32535 11.6632 4.54126 12.4474C3.75717 13.2315 3.75717 14.5029 4.54126 15.287C5.32535 16.0711 6.59669 16.0711 7.38079 15.287C8.16488 14.5029 8.16488 13.2315 7.38079 12.4474ZM8.49433 16.4005C7.71024 17.1846 7.71024 18.4559 8.49433 19.24C9.27843 20.0241 10.5498 20.0241 11.3339 19.24C12.118 18.4559 12.118 17.1846 11.3339 16.4005C10.5498 15.6164 9.27843 15.6164 8.49433 16.4005ZM12.4474 12.4474C11.6633 13.2315 11.6633 14.5029 12.4474 15.287C13.2317 16.0711 14.5028 16.0711 15.2871 15.287C16.0712 14.5029 16.0712 13.2315 15.2871 12.4474C14.5028 11.6632 13.2317 11.6632 12.4474 12.4474ZM8.49433 11.3339C7.71024 10.5496 7.71024 9.27846 8.49433 8.49421C9.27843 7.71012 10.5498 7.71012 11.3339 8.49421C12.118 9.27846 12.118 10.5496 11.3339 11.3339C10.5498 12.118 9.27843 12.118 8.49433 11.3339ZM16.4006 8.49421C17.1847 7.71012 18.4561 7.71012 19.2402 8.49421C20.0243 9.27846 20.0243 10.5496 19.2402 11.3339C18.4561 12.118 17.1847 12.118 16.4006 11.3339C15.6164 10.5496 15.6164 9.27846 16.4006 8.49421ZM12.4474 7.38067C13.2317 8.16492 14.5028 8.16492 15.2871 7.38067C16.0712 6.59657 16.0712 5.32524 15.2871 4.54114C14.5028 3.75705 13.2317 3.75705 12.4474 4.54114C11.6633 5.32524 11.6633 6.59657 12.4474 7.38067Z" fill="#636363"/>
</svg>
