<svg width="29" height="25" viewBox="0 0 29 25" fill="none" xmlns="http://www.w3.org/2000/svg">
<path fill-rule="evenodd" clip-rule="evenodd" d="M22.4326 4.95731V0.301565H24.0569V4.95731H28.7133V6.58224H24.0569V11.238H22.4326V6.58224H17.7756V4.95731H22.4326ZM10.7504 9.52921C11.0281 9.11292 11.2063 8.68343 11.2861 8.24537C11.3336 7.80664 11.3567 7.43719 11.3567 7.13767C11.3567 5.84393 11.0268 4.53766 10.3651 3.22215C10.0544 2.59144 9.64533 2.07685 9.13799 1.68232C8.62076 1.30694 8.02634 1.10967 7.35341 1.08724C6.46276 1.10967 5.72386 1.46857 5.1334 2.16327C4.63662 2.89096 4.39911 3.70441 4.42023 4.60297C4.42023 5.79049 4.76725 7.02618 5.46261 8.31002C5.79907 8.90906 6.23384 9.41706 6.76492 9.83401C7.29667 10.2516 7.90495 10.4601 8.58909 10.4601C9.454 10.4278 10.1731 10.1177 10.7504 9.52921ZM12.3516 17.9072C12.8945 18.5254 13.1677 19.2511 13.1677 20.0843C13.1677 21.1102 12.7698 21.9481 11.9755 22.5992C11.1607 23.2616 9.97915 23.6033 8.43207 23.6258C6.70687 23.6033 5.34715 23.2187 4.35359 22.4712C3.30791 21.7238 2.78606 20.7737 2.78606 19.6199C2.78606 19.0334 2.90679 18.5306 3.14694 18.1137C3.35541 17.7185 3.61205 17.3873 3.91487 17.1208C4.2289 16.8648 4.537 16.6675 4.84048 16.529C5.14329 16.4004 5.37882 16.3047 5.54639 16.2394C6.25693 16.0263 6.95163 15.8719 7.63181 15.7762C8.3219 15.7116 8.75073 15.6905 8.91764 15.7116C9.20001 15.7116 9.44543 15.7221 9.65456 15.7439C10.8777 16.5983 11.7769 17.3194 12.3516 17.9072ZM15.9511 0H9.38473C8.51454 0 7.58036 0.101599 6.5835 0.304798C5.57872 0.539663 4.60759 1.04238 3.67472 1.81097C2.31501 3.12319 1.63548 4.58582 1.63548 6.19755C1.63548 7.5322 2.11577 8.70059 3.07503 9.7047C3.99074 10.7827 5.3234 11.3323 7.07038 11.354C7.40091 11.354 7.75321 11.3323 8.12662 11.29C8.06394 11.4622 7.99731 11.6489 7.9254 11.8535C7.84293 12.0468 7.80203 12.2889 7.80203 12.5778C7.80203 13.0614 7.91022 13.4744 8.12662 13.8175C8.31134 14.1718 8.52246 14.5056 8.7593 14.817C7.99269 14.8388 7.03146 14.9331 5.87098 15.104C4.70127 15.3065 3.58434 15.7109 2.52019 16.3192C1.57347 16.8839 0.919011 17.5397 0.557476 18.2846C0.186705 19.0314 0 19.7076 0 20.3159C0 21.5621 0.57265 22.6335 1.71597 23.5288C2.85072 24.4874 4.56801 24.9776 6.86784 25C9.61498 24.9558 11.7169 24.2987 13.1736 23.0294C14.5788 21.8016 15.2814 20.3911 15.2814 18.8018C15.2617 17.6796 15.005 16.7724 14.5135 16.0791C13.9923 15.3956 13.3854 14.7715 12.6933 14.2041L11.579 13.2917C11.418 13.1307 11.2518 12.9453 11.0816 12.7316C10.8817 12.5066 10.7807 12.2242 10.7807 11.8838C10.7807 11.5308 10.8784 11.2214 11.075 10.9542C11.2412 10.6969 11.422 10.4674 11.6173 10.2655C11.9597 9.96596 12.2823 9.67172 12.5858 9.38407C12.8596 9.09643 13.1182 8.78107 13.3629 8.43933C13.8624 7.73407 14.1216 6.79527 14.1414 5.62028C14.1414 4.97902 14.0688 4.41957 13.9244 3.93928C13.7495 3.45833 13.5483 3.04138 13.3214 2.68974C13.0845 2.31567 12.8417 2.00032 12.595 1.74434C12.337 1.49826 12.1048 1.31221 11.8996 1.18356H13.9224L15.9511 0Z" fill="#95A9B1"/>
</svg>
